<?xml version="1.0" encoding="UTF-8"?><svg id="Layer_1" xmlns="http://www.w3.org/2000/svg" viewBox="0 0 222 222"><defs><style>.cls-1{stroke-width:0px;}</style></defs><rect class="cls-1" x="41.5" y="-41.5" width="56" height="139" rx="17.52" ry="17.52" transform="translate(97.5 -41.5) rotate(90)"/><rect class="cls-1" x="0" width="56" height="139" rx="17.52" ry="17.52" transform="translate(56 139) rotate(180)"/><rect class="cls-1" x="83" y="83" width="56" height="56" rx="17.52" ry="17.52" transform="translate(222 222) rotate(180)"/><path class="cls-1" d="m73.52,56h-17.52v17.52c0-9.64,7.88-17.52,17.52-17.52Z"/><rect class="cls-1" x="124.5" y="124.5" width="56" height="139" rx="17.52" ry="17.52" transform="translate(-41.5 346.5) rotate(-90)"/><rect class="cls-1" x="166" y="83" width="56" height="139" rx="17.52" ry="17.52"/><path class="cls-1" d="m148.48,166h17.52v-17.52c0,9.64-7.88,17.52-17.52,17.52Z"/></svg>