<?xml version="1.0" encoding="UTF-8"?><svg id="Layer_2" xmlns="http://www.w3.org/2000/svg" viewBox="0 0 1140.43 224.32"><defs><style>.cls-1{font-family:AvenirNext-Bold, 'Avenir Next';font-size:148.09px;font-weight:700;}.cls-1,.cls-2{fill:#fff;}.cls-2{stroke-width:0px;}</style></defs><g id="Layer_1-2"><text class="cls-1" transform="translate(278.7 152.35)"><tspan x="0" y="0">factory flow</tspan></text><rect class="cls-2" x="41.5" y="-41.5" width="56" height="139" rx="17.52" ry="17.52" transform="translate(97.5 -41.5) rotate(90)"/><rect class="cls-2" x="0" width="56" height="139" rx="17.52" ry="17.52" transform="translate(56 139) rotate(180)"/><rect class="cls-2" x="83" y="83" width="56" height="56" rx="17.52" ry="17.52" transform="translate(222 222) rotate(180)"/><path class="cls-2" d="m73.52,56h-17.52v17.52c0-9.64,7.88-17.52,17.52-17.52Z"/><rect class="cls-2" x="124.5" y="124.5" width="56" height="139" rx="17.52" ry="17.52" transform="translate(-41.5 346.5) rotate(-90)"/><rect class="cls-2" x="166" y="83" width="56" height="139" rx="17.52" ry="17.52"/><path class="cls-2" d="m148.48,166h17.52v-17.52c0,9.64-7.88,17.52-17.52,17.52Z"/></g></svg>